<svg width="99" height="44" viewBox="0 0 99 44" fill="none" xmlns="http://www.w3.org/2000/svg">
<mask id="path-1-outside-1_1_52" maskUnits="userSpaceOnUse" x="0.5" y="0" width="98" height="44" fill="black">
<rect fill="white" x="0.5" width="98" height="44"/>
<path d="M9.82 25.72H18.78V31H2.98V2.92H9.82V25.72ZM32.2025 31.32C30.0158 31.32 28.0425 30.8533 26.2825 29.92C24.5492 28.9867 23.1758 27.6533 22.1625 25.92C21.1758 24.1867 20.6825 22.16 20.6825 19.84C20.6825 17.5467 21.1892 15.5333 22.2025 13.8C23.2158 12.04 24.6025 10.6933 26.3625 9.76C28.1225 8.82667 30.0958 8.36 32.2825 8.36C34.4692 8.36 36.4425 8.82667 38.2025 9.76C39.9625 10.6933 41.3492 12.04 42.3625 13.8C43.3758 15.5333 43.8825 17.5467 43.8825 19.84C43.8825 22.1333 43.3625 24.16 42.3225 25.92C41.3092 27.6533 39.9092 28.9867 38.1225 29.92C36.3625 30.8533 34.3892 31.32 32.2025 31.32ZM32.2025 25.4C33.5092 25.4 34.6158 24.92 35.5225 23.96C36.4558 23 36.9225 21.6267 36.9225 19.84C36.9225 18.0533 36.4692 16.68 35.5625 15.72C34.6825 14.76 33.5892 14.28 32.2825 14.28C30.9492 14.28 29.8425 14.76 28.9625 15.72C28.0825 16.6533 27.6425 18.0267 27.6425 19.84C27.6425 21.6267 28.0692 23 28.9225 23.96C29.8025 24.92 30.8958 25.4 32.2025 25.4ZM55.9913 8.36C57.5646 8.36 58.9379 8.68 60.1113 9.32C61.3113 9.96 62.2313 10.8 62.8713 11.84V8.68H69.7113V30.96C69.7113 33.0133 69.2979 34.8667 68.4713 36.52C67.6713 38.2 66.4313 39.5333 64.7513 40.52C63.0979 41.5067 61.0313 42 58.5513 42C55.2446 42 52.5646 41.2133 50.5113 39.64C48.4579 38.0933 47.2846 35.9867 46.9913 33.32H53.7513C53.9646 34.1733 54.4713 34.84 55.2713 35.32C56.0713 35.8267 57.0579 36.08 58.2313 36.08C59.6446 36.08 60.7646 35.6667 61.5913 34.84C62.4446 34.04 62.8713 32.7467 62.8713 30.96V27.8C62.2046 28.84 61.2846 29.6933 60.1113 30.36C58.9379 31 57.5646 31.32 55.9913 31.32C54.1513 31.32 52.4846 30.8533 50.9913 29.92C49.4979 28.96 48.3113 27.6133 47.4313 25.88C46.5779 24.12 46.1513 22.0933 46.1513 19.8C46.1513 17.5067 46.5779 15.4933 47.4313 13.76C48.3113 12.0267 49.4979 10.6933 50.9913 9.76C52.4846 8.82667 54.1513 8.36 55.9913 8.36ZM62.8713 19.84C62.8713 18.1333 62.3913 16.7867 61.4313 15.8C60.4979 14.8133 59.3513 14.32 57.9913 14.32C56.6313 14.32 55.4713 14.8133 54.5113 15.8C53.5779 16.76 53.1113 18.0933 53.1113 19.8C53.1113 21.5067 53.5779 22.8667 54.5113 23.88C55.4713 24.8667 56.6313 25.36 57.9913 25.36C59.3513 25.36 60.4979 24.8667 61.4313 23.88C62.3913 22.8933 62.8713 21.5467 62.8713 19.84ZM84.8197 31.32C82.633 31.32 80.6597 30.8533 78.8997 29.92C77.1664 28.9867 75.793 27.6533 74.7797 25.92C73.793 24.1867 73.2997 22.16 73.2997 19.84C73.2997 17.5467 73.8064 15.5333 74.8197 13.8C75.833 12.04 77.2197 10.6933 78.9797 9.76C80.7397 8.82667 82.713 8.36 84.8997 8.36C87.0864 8.36 89.0597 8.82667 90.8197 9.76C92.5797 10.6933 93.9664 12.04 94.9797 13.8C95.993 15.5333 96.4997 17.5467 96.4997 19.84C96.4997 22.1333 95.9797 24.16 94.9397 25.92C93.9264 27.6533 92.5264 28.9867 90.7397 29.92C88.9797 30.8533 87.0064 31.32 84.8197 31.32ZM84.8197 25.4C86.1264 25.4 87.233 24.92 88.1397 23.96C89.073 23 89.5397 21.6267 89.5397 19.84C89.5397 18.0533 89.0864 16.68 88.1797 15.72C87.2997 14.76 86.2064 14.28 84.8997 14.28C83.5664 14.28 82.4597 14.76 81.5797 15.72C80.6997 16.6533 80.2597 18.0267 80.2597 19.84C80.2597 21.6267 80.6864 23 81.5397 23.96C82.4197 24.92 83.513 25.4 84.8197 25.4Z"/>
</mask>
<path d="M9.82 25.72H18.78V31H2.98V2.92H9.82V25.72ZM32.2025 31.32C30.0158 31.32 28.0425 30.8533 26.2825 29.92C24.5492 28.9867 23.1758 27.6533 22.1625 25.92C21.1758 24.1867 20.6825 22.16 20.6825 19.84C20.6825 17.5467 21.1892 15.5333 22.2025 13.8C23.2158 12.04 24.6025 10.6933 26.3625 9.76C28.1225 8.82667 30.0958 8.36 32.2825 8.36C34.4692 8.36 36.4425 8.82667 38.2025 9.76C39.9625 10.6933 41.3492 12.04 42.3625 13.8C43.3758 15.5333 43.8825 17.5467 43.8825 19.84C43.8825 22.1333 43.3625 24.16 42.3225 25.92C41.3092 27.6533 39.9092 28.9867 38.1225 29.92C36.3625 30.8533 34.3892 31.32 32.2025 31.32ZM32.2025 25.4C33.5092 25.4 34.6158 24.92 35.5225 23.96C36.4558 23 36.9225 21.6267 36.9225 19.84C36.9225 18.0533 36.4692 16.68 35.5625 15.72C34.6825 14.76 33.5892 14.28 32.2825 14.28C30.9492 14.28 29.8425 14.76 28.9625 15.72C28.0825 16.6533 27.6425 18.0267 27.6425 19.84C27.6425 21.6267 28.0692 23 28.9225 23.96C29.8025 24.92 30.8958 25.4 32.2025 25.4ZM55.9913 8.36C57.5646 8.36 58.9379 8.68 60.1113 9.32C61.3113 9.96 62.2313 10.8 62.8713 11.84V8.68H69.7113V30.96C69.7113 33.0133 69.2979 34.8667 68.4713 36.52C67.6713 38.2 66.4313 39.5333 64.7513 40.52C63.0979 41.5067 61.0313 42 58.5513 42C55.2446 42 52.5646 41.2133 50.5113 39.64C48.4579 38.0933 47.2846 35.9867 46.9913 33.32H53.7513C53.9646 34.1733 54.4713 34.84 55.2713 35.32C56.0713 35.8267 57.0579 36.08 58.2313 36.08C59.6446 36.08 60.7646 35.6667 61.5913 34.84C62.4446 34.04 62.8713 32.7467 62.8713 30.96V27.8C62.2046 28.84 61.2846 29.6933 60.1113 30.36C58.9379 31 57.5646 31.32 55.9913 31.32C54.1513 31.32 52.4846 30.8533 50.9913 29.92C49.4979 28.96 48.3113 27.6133 47.4313 25.88C46.5779 24.12 46.1513 22.0933 46.1513 19.8C46.1513 17.5067 46.5779 15.4933 47.4313 13.76C48.3113 12.0267 49.4979 10.6933 50.9913 9.76C52.4846 8.82667 54.1513 8.36 55.9913 8.36ZM62.8713 19.84C62.8713 18.1333 62.3913 16.7867 61.4313 15.8C60.4979 14.8133 59.3513 14.32 57.9913 14.32C56.6313 14.32 55.4713 14.8133 54.5113 15.8C53.5779 16.76 53.1113 18.0933 53.1113 19.8C53.1113 21.5067 53.5779 22.8667 54.5113 23.88C55.4713 24.8667 56.6313 25.36 57.9913 25.36C59.3513 25.36 60.4979 24.8667 61.4313 23.88C62.3913 22.8933 62.8713 21.5467 62.8713 19.84ZM84.8197 31.32C82.633 31.32 80.6597 30.8533 78.8997 29.92C77.1664 28.9867 75.793 27.6533 74.7797 25.92C73.793 24.1867 73.2997 22.16 73.2997 19.84C73.2997 17.5467 73.8064 15.5333 74.8197 13.8C75.833 12.04 77.2197 10.6933 78.9797 9.76C80.7397 8.82667 82.713 8.36 84.8997 8.36C87.0864 8.36 89.0597 8.82667 90.8197 9.76C92.5797 10.6933 93.9664 12.04 94.9797 13.8C95.993 15.5333 96.4997 17.5467 96.4997 19.84C96.4997 22.1333 95.9797 24.16 94.9397 25.92C93.9264 27.6533 92.5264 28.9867 90.7397 29.92C88.9797 30.8533 87.0064 31.32 84.8197 31.32ZM84.8197 25.4C86.1264 25.4 87.233 24.92 88.1397 23.96C89.073 23 89.5397 21.6267 89.5397 19.84C89.5397 18.0533 89.0864 16.68 88.1797 15.72C87.2997 14.76 86.2064 14.28 84.8997 14.28C83.5664 14.28 82.4597 14.76 81.5797 15.72C80.6997 16.6533 80.2597 18.0267 80.2597 19.84C80.2597 21.6267 80.6864 23 81.5397 23.96C82.4197 24.92 83.513 25.4 84.8197 25.4Z" fill="white"/>
<path d="M9.82 25.72H7.82V27.72H9.82V25.72ZM18.78 25.72H20.78V23.72H18.78V25.72ZM18.78 31V33H20.78V31H18.78ZM2.98 31H0.98V33H2.98V31ZM2.98 2.92V0.919999H0.98V2.92H2.98ZM9.82 2.92H11.82V0.919999H9.82V2.92ZM9.82 27.72H18.78V23.72H9.82V27.72ZM16.78 25.72V31H20.78V25.72H16.78ZM18.78 29H2.98V33H18.78V29ZM4.98 31V2.92H0.98V31H4.98ZM2.98 4.92H9.82V0.919999H2.98V4.92ZM7.82 2.92V25.72H11.82V2.92H7.82ZM26.2825 29.92L25.3343 31.681L25.3455 31.6869L26.2825 29.92ZM22.1625 25.92L20.4244 26.9094L20.4301 26.9194L20.4359 26.9294L22.1625 25.92ZM22.2025 13.8L23.9291 14.8094L23.9357 14.7979L22.2025 13.8ZM26.3625 9.76L27.2995 11.5269L26.3625 9.76ZM38.2025 9.76L37.2655 11.5269L38.2025 9.76ZM42.3625 13.8L40.6292 14.798L40.6359 14.8094L42.3625 13.8ZM42.3225 25.92L40.6006 24.9025L40.5959 24.9106L42.3225 25.92ZM38.1225 29.92L37.1964 28.1473L37.1855 28.1531L38.1225 29.92ZM35.5225 23.96L34.0885 22.5658L34.0784 22.5762L34.0685 22.5868L35.5225 23.96ZM35.5625 15.72L34.0882 17.0714L34.0983 17.0824L34.1085 17.0932L35.5625 15.72ZM28.9625 15.72L30.4177 17.092L30.4273 17.0818L30.4368 17.0714L28.9625 15.72ZM28.9225 23.96L27.4277 25.2887L27.4379 25.3002L27.4482 25.3114L28.9225 23.96ZM32.2025 29.32C30.31 29.32 28.6634 28.9188 27.2195 28.1531L25.3455 31.6869C27.4216 32.7879 29.7217 33.32 32.2025 33.32V29.32ZM27.2307 28.1591C25.8277 27.4036 24.7208 26.3333 23.8891 24.9106L20.4359 26.9294C21.6308 28.9734 23.2707 30.5698 25.3343 31.6809L27.2307 28.1591ZM23.9006 24.9306C23.1118 23.5448 22.6825 21.8702 22.6825 19.84H18.6825C18.6825 22.4498 19.2399 24.8285 20.4244 26.9094L23.9006 24.9306ZM22.6825 19.84C22.6825 17.8501 23.119 16.195 23.9291 14.8094L20.4759 12.7906C19.2593 14.8717 18.6825 17.2432 18.6825 19.84H22.6825ZM23.9357 14.7979C24.7652 13.3574 25.8787 12.2804 27.2995 11.5269L25.4255 7.99307C23.3263 9.10631 21.6665 10.7226 20.4693 12.8021L23.9357 14.7979ZM27.2995 11.5269C28.7434 10.7612 30.39 10.36 32.2825 10.36V6.36C29.8017 6.36 27.5016 6.89213 25.4255 7.99308L27.2995 11.5269ZM32.2825 10.36C34.175 10.36 35.8216 10.7612 37.2655 11.5269L39.1395 7.99308C37.0634 6.89213 34.7633 6.36 32.2825 6.36V10.36ZM37.2655 11.5269C38.6863 12.2804 39.7998 13.3574 40.6293 14.7979L44.0957 12.8021C42.8985 10.7226 41.2387 9.10631 39.1395 7.99307L37.2655 11.5269ZM40.6359 14.8094C41.446 16.195 41.8825 17.8501 41.8825 19.84H45.8825C45.8825 17.2432 45.3057 14.8717 44.0891 12.7906L40.6359 14.8094ZM41.8825 19.84C41.8825 21.82 41.4371 23.487 40.6006 24.9025L44.0444 26.9375C45.2879 24.833 45.8825 22.4466 45.8825 19.84H41.8825ZM40.5959 24.9106C39.7732 26.3179 38.6512 27.3874 37.1965 28.1473L39.0485 31.6927C41.1671 30.586 42.8452 28.9887 44.0491 26.9294L40.5959 24.9106ZM37.1855 28.1531C35.7416 28.9188 34.095 29.32 32.2025 29.32V33.32C34.6833 33.32 36.9834 32.7879 39.0595 31.6869L37.1855 28.1531ZM32.2025 27.4C34.066 27.4 35.6966 26.6885 36.9765 25.3332L34.0685 22.5868C33.5351 23.1515 32.9524 23.4 32.2025 23.4V27.4ZM36.9565 25.3542C38.3609 23.9096 38.9225 21.9683 38.9225 19.84H34.9225C34.9225 21.285 34.5507 22.0904 34.0885 22.5658L36.9565 25.3542ZM38.9225 19.84C38.9225 17.7264 38.3824 15.7929 37.0165 14.3468L34.1085 17.0932C34.556 17.5671 34.9225 18.3803 34.9225 19.84H38.9225ZM37.0368 14.3685C35.7765 12.9937 34.1476 12.28 32.2825 12.28V16.28C33.0307 16.28 33.5885 16.5263 34.0882 17.0714L37.0368 14.3685ZM32.2825 12.28C30.4037 12.28 28.7571 12.9842 27.4882 14.3685L30.4368 17.0714C30.9279 16.5358 31.4946 16.28 32.2825 16.28V12.28ZM27.5073 14.348C26.1552 15.782 25.6425 17.728 25.6425 19.84H29.6425C29.6425 18.3253 30.0098 17.5246 30.4177 17.092L27.5073 14.348ZM25.6425 19.84C25.6425 21.925 26.1409 23.8411 27.4277 25.2887L30.4173 22.6313C29.9974 22.1589 29.6425 21.3283 29.6425 19.84H25.6425ZM27.4482 25.3114C28.7085 26.6863 30.3374 27.4 32.2025 27.4V23.4C31.4543 23.4 30.8965 23.1537 30.3968 22.6086L27.4482 25.3114ZM60.1113 9.32L59.1535 11.0758L59.1618 11.0803L59.1701 11.0847L60.1113 9.32ZM62.8713 11.84L61.1679 12.8882L64.8713 18.9061V11.84H62.8713ZM62.8713 8.68V6.68H60.8713V8.68H62.8713ZM69.7113 8.68H71.7113V6.68H69.7113V8.68ZM68.4713 36.52L66.6824 35.6256L66.6738 35.6428L66.6655 35.6601L68.4713 36.52ZM64.7513 40.52L63.7384 38.7954L63.7263 38.8026L64.7513 40.52ZM50.5112 39.64L51.7277 38.0525L51.7211 38.0474L51.7146 38.0425L50.5112 39.64ZM46.9912 33.32V31.32H44.7592L45.0032 33.5387L46.9912 33.32ZM53.7513 33.32L55.6915 32.8349L55.3128 31.32H53.7513V33.32ZM55.2713 35.32L56.3414 33.6304L56.3209 33.6174L56.3002 33.605L55.2713 35.32ZM61.5913 34.84L60.2234 33.3809L60.1998 33.403L60.177 33.4258L61.5913 34.84ZM62.8713 27.8H64.8713V20.974L61.1875 26.7207L62.8713 27.8ZM60.1113 30.36L61.069 32.1158L61.0842 32.1075L61.0993 32.0989L60.1113 30.36ZM50.9912 29.92L49.9097 31.6024L49.9205 31.6092L49.9313 31.616L50.9912 29.92ZM47.4313 25.88L45.6316 26.7525L45.6396 26.769L45.6479 26.7854L47.4313 25.88ZM47.4313 13.76L45.6479 12.8546L45.6423 12.8656L45.6369 12.8766L47.4313 13.76ZM50.9912 9.76L52.0512 11.456L50.9912 9.76ZM61.4313 15.8L59.9783 17.1744L59.988 17.1846L59.9978 17.1947L61.4313 15.8ZM54.5112 15.8L53.0778 14.4053L53.0773 14.4058L54.5112 15.8ZM54.5112 23.88L53.0402 25.235L53.0587 25.2551L53.0778 25.2747L54.5112 23.88ZM61.4313 23.88L59.9978 22.4853L59.988 22.4954L59.9783 22.5056L61.4313 23.88ZM55.9912 10.36C57.2894 10.36 58.3221 10.6223 59.1535 11.0758L61.069 7.56421C59.5538 6.73774 57.8398 6.36 55.9912 6.36V10.36ZM59.1701 11.0847C60.0934 11.5772 60.7345 12.1838 61.1679 12.8882L64.5746 10.7918C63.7281 9.41621 62.5291 8.34283 61.0524 7.55529L59.1701 11.0847ZM64.8713 11.84V8.68H60.8713V11.84H64.8713ZM62.8713 10.68H69.7113V6.68H62.8713V10.68ZM67.7113 8.68V30.96H71.7113V8.68H67.7113ZM67.7113 30.96C67.7113 32.7377 67.3554 34.2795 66.6824 35.6256L70.2601 37.4144C71.2404 35.4538 71.7113 33.289 71.7113 30.96H67.7113ZM66.6655 35.6601C66.0458 36.9616 65.0908 38.0012 63.7384 38.7954L65.7641 42.2446C67.7717 41.0655 69.2967 39.4384 70.277 37.3799L66.6655 35.6601ZM63.7263 38.8026C62.4601 39.5582 60.7724 40 58.5513 40V44C61.2901 44 63.7357 43.4551 65.7762 42.2374L63.7263 38.8026ZM58.5513 40C55.5607 40 53.3451 39.2918 51.7277 38.0525L49.2948 41.2275C51.7841 43.1349 54.9284 44 58.5513 44V40ZM51.7146 38.0425C50.1229 36.8435 49.2153 35.2468 48.9793 33.1013L45.0032 33.5387C45.3539 36.7266 46.793 39.3431 49.3079 41.2375L51.7146 38.0425ZM46.9912 35.32H53.7513V31.32H46.9912V35.32ZM51.811 33.8051C52.1614 35.2066 53.018 36.3005 54.2423 37.035L56.3002 33.605C55.9245 33.3795 55.7678 33.14 55.6915 32.8349L51.811 33.8051ZM54.2011 37.0096C55.39 37.7626 56.7695 38.08 58.2313 38.08V34.08C57.3463 34.08 56.7525 33.8908 56.3414 33.6304L54.2011 37.0096ZM58.2313 38.08C60.0567 38.08 61.7276 37.5321 63.0055 36.2542L60.177 33.4258C59.8016 33.8013 59.2325 34.08 58.2313 34.08V38.08ZM62.9591 36.2991C64.3868 34.9606 64.8713 33.0105 64.8713 30.96H60.8713C60.8713 32.4828 60.5024 33.1194 60.2234 33.3809L62.9591 36.2991ZM64.8713 30.96V27.8H60.8713V30.96H64.8713ZM61.1875 26.7207C60.7116 27.463 60.0412 28.0995 59.1232 28.6211L61.0993 32.0989C62.5279 31.2872 63.6975 30.217 64.555 28.8793L61.1875 26.7207ZM59.1535 28.6042C58.3221 29.0577 57.2894 29.32 55.9912 29.32V33.32C57.8398 33.32 59.5538 32.9423 61.069 32.1158L59.1535 28.6042ZM55.9912 29.32C54.5084 29.32 53.2121 28.9495 52.0512 28.224L49.9313 31.616C51.7571 32.7571 53.7941 33.32 55.9912 33.32V29.32ZM52.0728 28.2376C50.9061 27.4877 49.9495 26.4222 49.2146 24.9746L45.6479 26.7854C46.673 28.8045 48.0897 30.4323 49.9097 31.6024L52.0728 28.2376ZM49.2309 25.0075C48.5303 23.5625 48.1512 21.8429 48.1512 19.8H44.1512C44.1512 22.3437 44.6255 24.6775 45.6316 26.7525L49.2309 25.0075ZM48.1512 19.8C48.1512 17.7562 48.5306 16.0551 49.2256 14.6434L45.6369 12.8766C44.6252 14.9316 44.1512 17.2572 44.1512 19.8H48.1512ZM49.2146 14.6654C49.9475 13.2218 50.8979 12.1769 52.0512 11.456L49.9313 8.064C48.098 9.20981 46.675 10.8316 45.6479 12.8546L49.2146 14.6654ZM52.0512 11.456C53.2121 10.7305 54.5084 10.36 55.9912 10.36V6.36C53.7941 6.36 51.7571 6.92286 49.9313 8.064L52.0512 11.456ZM64.8713 19.84C64.8713 17.7441 64.2705 15.8502 62.8647 14.4053L59.9978 17.1947C60.512 17.7232 60.8713 18.5226 60.8713 19.84H64.8713ZM62.8842 14.4256C61.5725 13.039 59.9001 12.32 57.9912 12.32V16.32C58.8024 16.32 59.4233 16.5877 59.9783 17.1744L62.8842 14.4256ZM57.9912 12.32C56.0839 12.32 54.4091 13.037 53.0778 14.4053L55.9447 17.1947C56.5334 16.5897 57.1786 16.32 57.9912 16.32V12.32ZM53.0773 14.4058C51.6887 15.8341 51.1113 17.7221 51.1113 19.8H55.1113C55.1113 18.4646 55.4672 17.6859 55.9452 17.1942L53.0773 14.4058ZM51.1113 19.8C51.1113 21.8832 51.6903 23.7694 53.0402 25.235L55.9823 22.525C55.4655 21.9639 55.1113 21.1301 55.1113 19.8H51.1113ZM53.0778 25.2747C54.4091 26.643 56.0839 27.36 57.9912 27.36V23.36C57.1786 23.36 56.5334 23.0903 55.9447 22.4853L53.0778 25.2747ZM57.9912 27.36C59.9001 27.36 61.5725 26.641 62.8842 25.2544L59.9783 22.5056C59.4233 23.0923 58.8024 23.36 57.9912 23.36V27.36ZM62.8647 25.2747C64.2705 23.8298 64.8713 21.9359 64.8713 19.84H60.8713C60.8713 21.1574 60.512 21.9568 59.9978 22.4853L62.8647 25.2747ZM78.8997 29.92L77.9515 31.681L77.9627 31.6869L78.8997 29.92ZM74.7797 25.92L73.0416 26.9094L73.0473 26.9194L73.0531 26.9294L74.7797 25.92ZM74.8197 13.8L76.5463 14.8094L76.5529 14.7979L74.8197 13.8ZM78.9797 9.76L79.9167 11.5269L78.9797 9.76ZM90.8197 9.76L89.8827 11.5269L90.8197 9.76ZM94.9797 13.8L93.2464 14.798L93.2531 14.8094L94.9797 13.8ZM94.9397 25.92L93.2178 24.9025L93.2131 24.9106L94.9397 25.92ZM90.7397 29.92L89.8136 28.1473L89.8027 28.1531L90.7397 29.92ZM88.1397 23.96L86.7057 22.5658L86.6956 22.5762L86.6857 22.5868L88.1397 23.96ZM88.1797 15.72L86.7054 17.0714L86.7154 17.0824L86.7257 17.0932L88.1797 15.72ZM81.5797 15.72L83.0349 17.092L83.0445 17.0818L83.054 17.0714L81.5797 15.72ZM81.5397 23.96L80.0449 25.2887L80.055 25.3002L80.0654 25.3114L81.5397 23.96ZM84.8197 29.32C82.9272 29.32 81.2806 28.9188 79.8367 28.1531L77.9627 31.6869C80.0387 32.7879 82.3389 33.32 84.8197 33.32V29.32ZM79.8479 28.1591C78.4449 27.4036 77.338 26.3333 76.5063 24.9106L73.0531 26.9294C74.248 28.9734 75.8878 30.5698 77.9515 31.6809L79.8479 28.1591ZM76.5178 24.9306C75.729 23.5448 75.2997 21.8702 75.2997 19.84H71.2997C71.2997 22.4498 71.857 24.8285 73.0416 26.9094L76.5178 24.9306ZM75.2997 19.84C75.2997 17.8501 75.7362 16.195 76.5463 14.8094L73.0931 12.7906C71.8765 14.8717 71.2997 17.2432 71.2997 19.84H75.2997ZM76.5529 14.7979C77.3823 13.3574 78.4959 12.2804 79.9167 11.5269L78.0427 7.99307C75.9434 9.10631 74.2837 10.7226 73.0864 12.8021L76.5529 14.7979ZM79.9167 11.5269C81.3606 10.7612 83.0071 10.36 84.8997 10.36V6.36C82.4189 6.36 80.1187 6.89213 78.0427 7.99308L79.9167 11.5269ZM84.8997 10.36C86.7922 10.36 88.4387 10.7612 89.8827 11.5269L91.7567 7.99308C89.6806 6.89213 87.3805 6.36 84.8997 6.36V10.36ZM89.8827 11.5269C91.3034 12.2804 92.417 13.3574 93.2464 14.7979L96.7129 12.8021C95.5157 10.7226 93.8559 9.10631 91.7567 7.99307L89.8827 11.5269ZM93.2531 14.8094C94.0631 16.195 94.4997 17.8501 94.4997 19.84H98.4997C98.4997 17.2432 97.9229 14.8717 96.7063 12.7906L93.2531 14.8094ZM94.4997 19.84C94.4997 21.82 94.0543 23.487 93.2178 24.9025L96.6615 26.9375C97.9051 24.833 98.4997 22.4466 98.4997 19.84H94.4997ZM93.2131 24.9106C92.3903 26.3179 91.2684 27.3874 89.8137 28.1473L91.6657 31.6927C93.7843 30.586 95.4624 28.9887 96.6663 26.9294L93.2131 24.9106ZM89.8027 28.1531C88.3587 28.9188 86.7122 29.32 84.8197 29.32V33.32C87.3005 33.32 89.6006 32.7879 91.6767 31.6869L89.8027 28.1531ZM84.8197 27.4C86.6832 27.4 88.3138 26.6885 89.5937 25.3332L86.6857 22.5868C86.1523 23.1515 85.5695 23.4 84.8197 23.4V27.4ZM89.5737 25.3542C90.9781 23.9096 91.5397 21.9683 91.5397 19.84H87.5397C87.5397 21.285 87.1679 22.0904 86.7057 22.5658L89.5737 25.3542ZM91.5397 19.84C91.5397 17.7264 90.9995 15.7929 89.6337 14.3468L86.7257 17.0932C87.1732 17.5671 87.5397 18.3803 87.5397 19.84H91.5397ZM89.654 14.3685C88.3937 12.9937 86.7648 12.28 84.8997 12.28V16.28C85.6479 16.28 86.2056 16.5263 86.7054 17.0714L89.654 14.3685ZM84.8997 12.28C83.0209 12.28 81.3743 12.9842 80.1054 14.3685L83.054 17.0714C83.545 16.5358 84.1118 16.28 84.8997 16.28V12.28ZM80.1245 14.348C78.7724 15.782 78.2597 17.728 78.2597 19.84H82.2597C82.2597 18.3253 82.627 17.5246 83.0349 17.092L80.1245 14.348ZM78.2597 19.84C78.2597 21.925 78.7581 23.8411 80.0449 25.2887L83.0345 22.6313C82.6146 22.1589 82.2597 21.3283 82.2597 19.84H78.2597ZM80.0654 25.3114C81.3256 26.6863 82.9546 27.4 84.8197 27.4V23.4C84.0715 23.4 83.5137 23.1537 83.014 22.6086L80.0654 25.3114Z" fill="#1E1E1E" mask="url(#path-1-outside-1_1_52)"/>
</svg>
